Coordinates
version=1
nRows=19
nColumns=34
inDegrees=yes

Units are S.I. units (second, meters, Newtons, ...)
If the header above contains a line with 'inDegrees', this indicates whether rotational values are in degrees (yes) or radians (no).

endheader
time	pelvis_tilt	pelvis_list	pelvis_rotation	pelvis_tx	pelvis_ty	pelvis_tz	hip_flexion_r	hip_adduction_r	hip_rotation_r	knee_angle_r	ankle_angle_r	subtalar_angle_r	mtp_angle_r	hip_flexion_l	hip_adduction_l	hip_rotation_l	knee_angle_l	ankle_angle_l	subtalar_angle_l	mtp_angle_l	lumbar_extension	lumbar_bending	lumbar_rotation	arm_flex_r	arm_add_r	arm_rot_r	elbow_flex_r	pro_sup_r	arm_flex_l	arm_add_l	arm_rot_l	elbow_flex_l	pro_sup_l
      0.00000000	      0.99286303	      0.71722051	      0.86812462	      0.11663607	      0.93453983	     -0.06652603	     -5.25436745	     -4.47793543	     -0.76908925	      0.55152018	      6.58245330	     -2.34896011	      0.00000000	     -4.08072981	     -7.19769523	     -4.77120879	      0.00000000	      7.60425425	     -0.53940495	      0.00000000	     -0.58060504	      2.76191787	     11.17174939	     85.28996684	     -1.35474735	     65.39427825	    127.62268485	     92.93018727	     88.85276369	      2.15641700	     73.84852293	    124.39943699	    107.24110982
      0.01666670	     -0.31411470	      0.40637305	      0.41829221	      0.11657522	      0.93204000	     -0.06694335	     -3.98544374	     -3.98782567	      0.16915431	      0.00000000	      8.51522425	     -1.34327061	      0.00000000	     -2.61315489	     -7.30056714	     -4.66043012	      0.00000000	      7.18623464	     -0.32899764	      0.00000000	      0.31021013	      3.22562729	     11.02484159	     90.33016553	     -2.82543234	     66.83408810	    128.28614370	     94.19835661	     94.72413941	      0.58780829	     72.99047853	    124.87398823	    106.23069105
      0.03333330	     -1.34193685	      0.69142080	      0.09527697	      0.11468513	      0.92976739	     -0.06625056	     -2.68634291	     -4.14542949	     -0.11765329	      0.00000000	      8.22961665	     -2.09505395	      0.00000000	     -1.36941063	     -7.02477229	     -5.22001681	      0.00000000	      6.51411270	     -0.31492350	      0.00000000	      1.31853403	      2.79476151	     13.15074427	     91.13688846	     -4.94721838	     66.86987181	    131.30548265	     94.80694354	     96.04013453	     -0.01470590	     73.19766527	    127.40026013	    105.87619989
      0.05000000	     -1.94413833	      0.87213844	     -0.37746791	      0.11425341	      0.93284301	     -0.06574476	     -1.83747481	     -4.38770907	      0.52252643	      0.00000000	      8.07463192	     -2.48269652	      0.00000000	     -0.78396645	     -6.88390877	     -5.47312337	      0.00000000	      6.10268859	     -0.59990308	      0.00000000	      1.88698386	      2.22908315	     14.87934185	     91.66200957	     -5.74962865	     66.90612002	    134.01716892	     95.69692932	     96.73341626	      0.94407765	     73.65669086	    127.61716082	    105.65925540
      0.06666670	     -2.60920755	      0.96797048	     -0.71805607	      0.11292354	      0.93378377	     -0.06545759	     -0.95821773	     -4.50820370	      1.08205658	      0.00000000	      7.64426431	     -2.99945622	      0.00000000	     -0.08229293	     -6.80780434	     -5.60827340	      0.00000000	      5.89956805	     -0.78109297	      0.00000000	      1.98010036	      1.75696401	     15.15277574	     92.12220380	     -5.28188088	     67.29716114	    134.84433723	     97.04893761	     97.13059276	      2.60889919	     75.49588198	    125.97348852	    105.78223140
      0.08333330	     -2.85216870	      1.00887296	     -0.97914688	      0.11290209	      0.93348817	     -0.06538052	     -0.56452693	     -4.58406322	      1.35813041	      0.00000000	      7.39232575	     -2.83551617	      0.00000000	      0.16830080	     -6.74698572	     -5.65635642	      0.00000000	      5.86053941	     -0.82206572	      0.00000000	      1.59757625	      1.76378982	     14.85019057	     92.57254245	     -4.03293116	     67.08367916	    135.03422623	     97.20221703	     97.06657501	      3.57993983	     75.64516876	    125.63867114	    105.83241896
      0.10000000	     -3.16413573	      1.10690412	     -1.11286708	      0.11232756	      0.93026396	     -0.06549282	     -0.13129667	     -4.70783866	      1.57607487	      0.00000000	      7.37948609	     -3.06810985	      0.00000000	      0.54842707	     -6.64224444	     -5.69038671	      0.00000000	      5.91103267	     -0.95935773	      0.00000000	      1.46870736	      1.53502650	     14.49142539	     93.06746441	     -3.79993223	     67.07939621	    133.81765870	     97.61330499	     98.01542107	      3.83572796	     75.65803075	    125.11373033	    105.97558100
      0.11666670	     -3.12913928	      1.08827106	     -1.11974196	      0.11237011	      0.92882884	     -0.06621809	     -0.14698275	     -4.72459959	      1.58125769	      0.00000000	      7.37591784	     -3.06747990	      0.00000000	      0.57067700	     -6.64719350	     -5.68571487	      0.00000000	      5.91195707	     -0.95887125	      0.00000000	      1.48575730	      1.53047681	     14.50152706	     93.06445586	     -3.79377525	     67.08316096	    133.81869563	     97.61642877	     98.02273465	      3.83567734	     75.65730436	    125.11811778	    105.97674740
      0.13333330	     -3.21729841	      1.13724247	     -1.28083565	      0.11279646	      0.92959285	     -0.06605438	     -0.03287542	     -4.80210519	      2.18011520	      0.00000000	      6.98375663	     -3.78309400	      0.00000000	      0.63591574	     -6.57127731	     -5.34361070	      0.00000000	      6.01016335	     -1.26534412	      0.00000000	      1.40417570	      1.50702287	     15.14517318	     93.30424503	     -3.44279312	     67.08473350	    134.83146914	     98.64972719	     98.83107791	      4.28484228	     75.65362743	    126.05067230	    106.46705633
      0.15000000	     -3.22027063	      1.14657844	     -1.37266375	      0.11162316	      0.92620069	     -0.06599404	      0.00990282	     -4.82148585	      2.38681587	      0.00000000	      7.11922397	     -3.85083794	      0.00000000	      0.66541839	     -6.56092152	     -5.07765054	      0.00000000	      6.31410610	     -1.28764424	      0.00000000	      1.55878814	      1.44096498	     15.15954346	     93.33513438	     -3.43648584	     67.05301540	    134.67284090	     98.80896816	     99.29718002	      4.15042350	     75.29781932	    125.82937884	    106.53191492
      0.16666670	     -3.21088014	      1.20362467	     -1.53851751	      0.11151731	      0.93158331	     -0.06627611	      0.05522679	     -4.92398845	      2.69122664	      0.00000000	      7.09165316	     -3.85711349	      0.00000000	      0.64842858	     -6.48070895	     -4.89229849	      0.00000000	      6.33557367	     -1.25295753	      0.00000000	      1.48874431	      1.44218138	     14.73764917	     93.23727203	     -2.91041895	     67.05895963	    134.97347398	     98.99861389	     99.16360633	      4.06462616	     75.31953852	    125.47322204	    106.63612318
      0.18333330	     -3.21674604	      1.22288533	     -1.65547227	      0.11032695	      0.93125958	     -0.06632978	      0.14706625	     -4.95858107	      2.70402379	      0.00000000	      7.10847937	     -3.87120647	      0.00000000	      0.68130698	     -6.44165913	     -4.87244241	      0.00000000	      6.34491741	     -1.25134662	      0.00000000	      1.38673378	      1.50986469	     14.61367876	     93.20259871	     -2.91299010	     67.06677590	    134.98972752	     99.01629394	     99.15255782	      4.08203120	     75.32241078	    125.45838068	    106.64601157
      0.20000000	     -3.20839628	      1.20708614	     -1.65139891	      0.11096705	      0.93050894	     -0.06707141	      0.15558160	     -4.95815463	      2.70936942	      0.00000000	      7.10725568	     -3.87047766	      0.00000000	      0.67338272	     -6.43439051	     -4.86890292	      0.00000000	      6.34340643	     -1.25035290	      0.00000000	      1.38926582	      1.50061975	     14.61794199	     93.19804067	     -2.90356417	     67.06718986	    134.99516049	     99.01866496	     99.15094329	      4.07259348	     75.32419883	    125.45543282	    106.64747527
      0.21666670	     -3.12780865	      1.27921252	     -1.81904990	      0.10901529	      0.92948948	     -0.06801574	      0.11545126	     -5.06693287	      3.03219880	      0.00000000	      7.05723252	     -3.81942705	      0.00000000	      0.56949727	     -6.32889767	     -4.61806580	      0.00000000	      6.39559602	     -1.23600131	      0.00000000	      1.62122220	      1.59274423	     14.58506759	     92.89933122	     -2.79548314	     67.04102499	    135.44060693	     99.13961171	     99.04854929	      3.31270775	     75.43146547	    125.29957806	    106.72742610
      0.23333330	     -3.00268614	      1.29176841	     -1.93067110	      0.10890277	      0.93215469	     -0.06753368	      0.04543078	     -5.10191955	      3.13183322	      0.00000000	      7.07736949	     -3.93804235	      0.00000000	      0.44567827	     -6.29004915	     -4.57208463	      0.00000000	      6.40605401	     -1.32493844	      0.00000000	      1.83233939	      1.72196326	     14.63901735	     92.34857366	     -2.94835013	     67.08498308	    136.01407633	     99.28505869	     98.45322336	      2.39949106	     75.88713639	    125.28906372	    106.83993427
      0.25000000	     -3.24605820	      1.23243722	     -2.02859475	      0.10867715	      0.92953189	     -0.06840313	      0.34328942	     -5.07380680	      3.29715118	      0.00000000	      6.78850046	     -4.17189222	      0.00000000	      0.71347332	     -6.32737384	     -4.60454192	      0.00000000	      6.32758070	     -1.46862261	      0.00000000	      2.32250670	      1.92295817	     14.29373278	     91.88436457	     -2.55868517	     67.14343110	    135.75750577	     99.65850751	     97.94331744	      1.76672418	     76.81374304	    124.42898331	    107.13823518
      0.26666670	     -3.32514424	      1.25044614	     -2.09171786	      0.10663630	      0.93000037	     -0.06875666	      0.51338088	     -5.11734377	      3.28772074	      0.00000000	      6.79187597	     -4.18566709	      0.00000000	      0.84025166	     -6.27693608	     -4.63052445	      0.00000000	      6.33895888	     -1.48964435	      0.00000000	      2.05675075	      2.00371767	     14.19243121	     91.85125295	     -2.55451365	     67.14936694	    135.74635466	     99.67081901	     97.94479187	      1.86616443	     76.82179079	    124.39665746	    107.14774388
      0.28333330	     -3.50146125	      1.24710936	     -2.02782531	      0.10725857	      0.93732349	     -0.06766178	      0.74481495	     -5.10307226	      3.33864613	      0.00000000	      6.51800293	     -4.10867083	      0.00000000	      1.11092868	     -6.28566434	     -4.69984137	      0.00000000	      6.16445908	     -1.49963371	      0.00000000	      1.81539707	      1.88567821	     14.01924391	     91.91893119	     -1.93046705	     67.08307392	    135.75371255	     99.74991963	     97.70729689	      2.69226786	     77.12133058	    124.50778578	    107.22743122
      0.30000000	     -3.88095888	      1.23332706	     -1.99324302	      0.10668726	      0.93593790	     -0.06773038	      1.23951091	     -5.06974825	      3.24579993	      0.00000000	      6.21997558	     -4.20499083	      0.00000000	      1.60058531	     -6.29494876	     -4.76323385	      0.00000000	      5.85688700	     -1.49428813	      0.00000000	      1.76557326	      1.88011087	     13.35624180	     92.09879290	     -1.25990778	     66.74933256	    135.44781699	     99.99142696	     98.03058805	      2.93217420	     77.99704669	    124.05065628	    107.49594872
